<?xml version="1.0" encoding="utf-8"?>
<!-- Generator: Adobe Illustrator 21.0.2, SVG Export Plug-In . SVG Version: 6.00 Build 0)  -->
<svg version="1.1" id="Layer_1" xmlns="http://www.w3.org/2000/svg" xmlns:xlink="http://www.w3.org/1999/xlink" x="0px" y="0px"
	 viewBox="0 0 102.9 11.7" style="enable-background:new 0 0 102.9 11.7;" xml:space="preserve">
<style type="text/css">
	.st0{fill:#B1040E;}
</style>
<g>
	<path class="st0" d="M9.2,6.4l0.2,0c-0.2,1-0.8,1.8-1.6,2.4C7,9.5,6.1,9.8,5,9.8c-1.2,0-2.2-0.4-3-1.2C1.2,7.9,0.8,6.9,0.8,5.7
		c0-1.6,0.9-3,2.6-4.2c0,0-0.1,0-0.1,0c-0.1,0-0.1,0-0.1,0c-0.1,0-0.1,0-0.2,0H2.8C1.6,1.4,0.7,2,0.2,3.2L0,3.1
		C0.2,2.2,0.6,1.5,1.2,1c0.6-0.5,1.4-0.7,2.3-0.7c0.2,0,0.5,0,0.9,0.1c0.3,0,0.8,0.1,1.2,0.2c0.9,0.2,1.6,0.3,2.1,0.3
		c0.7,0,1.2-0.3,1.5-0.8l0.2,0.1C9.4,0.7,9.1,1.2,8.7,1.5C8.3,1.8,7.8,2,7.1,2C7.1,2,7,2,6.9,2C6.7,2,6.6,2,6.6,2v6.5
		C7.7,8.3,8.6,7.6,9.2,6.4z M2.5,3C2.2,3.6,2.1,4.3,2.1,5c0,1.1,0.4,2,1.3,2.8C3.8,7.5,4,7,4,6.2V1.5C3.4,1.8,2.9,2.3,2.5,3z
		 M6.1,1.9c-0.1,0-0.2,0-0.3-0.1c-0.1,0-0.2,0-0.3,0c-0.1,0-0.1,0-0.2,0v3.5c0,0.9-0.3,1.5-0.8,2c0,0-0.1,0.1-0.3,0.2
		C4.2,7.6,4,7.8,3.6,8c0.6,0.4,1.3,0.6,2,0.6h0.2c0.1,0,0.1,0,0.2,0c0.1,0,0.1,0,0.2,0c0,0,0,0,0.1,0c0,0,0.1,0,0.1,0V1.9
		C6.2,1.9,6.2,1.9,6.1,1.9z"/>
	<path class="st0" d="M9.8,8.9l0.6-0.5V1.9c0-0.6-0.2-1.1-0.6-1.4l0.1-0.2c0.3,0.1,0.7,0.4,1,0.7c0.4-0.4,0.9-0.7,1.6-0.8l0.1,0.2
		c0,0-0.1,0.1-0.2,0.2c-0.4,0.3-0.6,0.8-0.6,1.4v2.5l2-1.6l0.3,0.3c0.3,0.3,0.5,0.6,0.6,0.9c0.1,0.2,0.1,0.6,0.1,1v2.8
		c0,0.7-0.1,1.2-0.2,1.6c-0.2,0.5-0.5,0.9-1,1.2c-0.5,0.3-1.3,0.8-2.5,1.3l-0.1-0.3c0.1,0,0.1-0.1,0.2-0.1c0.1,0,0.2-0.1,0.3-0.1
		c0.7-0.3,1.2-0.7,1.4-1.1c0.3-0.4,0.4-1,0.4-1.8V5c0-0.5-0.1-0.9-0.4-1.1l-1.1,0.8v3.8L12.2,9L11,9.9L9.8,8.9z"/>
	<path class="st0" d="M17.9,9.9c-0.8-0.5-1.5-0.8-2.2-0.9V8.9c0.3-0.1,0.4-0.5,0.5-1V7.8V4.9c0-0.4-0.2-0.5-0.5-0.5l-0.1-0.2
		c0.6-0.2,1.1-0.5,1.5-0.7c0.4-0.2,0.8-0.5,1.2-0.7L20.2,5l-2.5,2.1v1.3c0.5,0.3,0.9,0.5,1.2,0.6l1-0.7L20,8.5L17.9,9.9z M19.1,5.5
		l-1.4-1.8v3L19.1,5.5z"/>
	<path class="st0" d="M31.9,1.2l0.4-0.7l0.3,0.2l-1.5,2.7c0,0,0,0,0.1,0c0,0,0,0,0.1,0h0.5c0.9,0,1.6,0.1,2.2,0.4
		c0.9,0.4,1.3,1.1,1.3,2c0,0.9-0.4,1.7-1.3,2.4c-0.6,0.5-1.4,1-2.5,1.5c-0.4-0.1-0.7-0.2-1-0.4c-0.1,0-0.2-0.1-0.3-0.1
		c-0.1,0-0.2-0.1-0.3-0.1c-1.1,0.6-2.1,0.8-2.8,0.8h-0.2c0,0-0.1,0-0.2,0c-0.9-0.1-1.3-0.5-1.3-1.1c0-0.4,0.2-0.8,0.6-1
		c0.3-0.2,0.8-0.3,1.2-0.3c0.4,0,0.8,0,1.1,0.1l0.5-0.9h-1c-0.1,0-0.2,0-0.3,0c-0.5,0-1-0.2-1.4-0.5c-0.4-0.2-0.5-0.6-0.5-1.1
		c0-0.7,0.4-1.2,1.2-1.5c0-1,0.8-2.2,2.4-3.4v0L31.9,1.2z M26.9,8.4c-0.3,0-0.6,0.1-0.8,0.2C26,8.7,25.9,8.8,25.9,9
		c0,0.3,0.2,0.5,0.6,0.6h0.1c0,0,0.1,0,0.1,0c0.9,0,1.7-0.2,2.6-0.7v0C28.4,8.6,27.6,8.4,26.9,8.4z M29.2,4.6c-0.3,0-0.5,0-0.8,0
		c-0.4,0-0.7,0-0.9-0.1c-0.3-0.1-0.5-0.3-0.6-0.7c-0.3,0.2-0.4,0.4-0.4,0.7c0,0.3,0.2,0.6,0.5,0.7c0.3,0.1,0.6,0.2,0.9,0.2h0.4
		c0.1,0,0.3,0,0.4,0c0.1,0,0.3,0,0.4,0l0.4,0L30,4.5C29.7,4.5,29.4,4.6,29.2,4.6z M28.8,1.4h-0.1c-0.3,0-0.6,0.1-0.8,0.4
		c-0.2,0.2-0.3,0.5-0.3,0.7c0,0.6,0.4,0.9,1.2,1h0.1H29c0,0,0.1,0,0.1,0c0.1,0,0.1,0,0.2,0h0.4c0.1,0,0.3,0,0.4,0
		c0.2,0,0.4,0,0.6-0.1l0.6-1.1C30.3,1.7,29.5,1.4,28.8,1.4z M29.8,7.8c0.2,0,0.4,0.1,0.6,0.2s0.4,0.1,0.6,0.2
		c0.1-0.1,0.3-0.2,0.4-0.3c0.2-0.1,0.4-0.3,0.6-0.4c0.2-0.2,0.2-0.3,0.2-0.5c0-0.2-0.1-0.3-0.3-0.4c-0.1-0.1-0.3-0.1-0.5-0.1
		c-0.2,0-0.4,0-0.7,0l-1.4,0.2c-0.1,0-0.1,0-0.2,0l-0.5,0.9L29.8,7.8z M30.3,5.3c0.1,0,0.3,0,0.5-0.1c0,0,0.1,0,0.2,0
		c0.1,0,0.1,0,0.2,0c0.3,0,0.5,0,0.6,0c0.2,0,0.4,0,0.6,0.1c0.8,0.2,1.2,0.5,1.2,1.1c0,0.5-0.4,1.1-1.3,1.6C32.1,8,31.9,8,31.8,8.1
		l-0.3,0.2L32,8.5c0.1,0,0.2,0.1,0.3,0.1c0.1,0,0.2,0.1,0.2,0.1c0,0,0.1,0,0.1-0.1c1.1-0.8,1.6-1.6,1.6-2.4c0-0.6-0.3-1.1-0.8-1.4
		c-0.4-0.3-1-0.4-1.6-0.4c-0.2,0-0.5,0-0.7,0c-0.2,0-0.5,0-0.7,0l-0.5,0.9C30,5.3,30.1,5.3,30.3,5.3z"/>
	<path class="st0" d="M37.7,1v2.1h1.2v0.8h-1.2v4.5c0,0,0.1,0.1,0.2,0.1c0.1,0.1,0.2,0.1,0.3,0.2l0.2,0.2l0.4-0.4L39,8.7l-1.5,1.2
		c-0.4-0.5-1-0.8-1.6-1V8.7c0.3-0.2,0.4-0.5,0.4-1.1V3.8h-0.6V3.6L37.7,1z"/>
	<path class="st0" d="M43,9.9c0,0-0.1-0.1-0.1-0.1s-0.1-0.1-0.2-0.2c-0.3-0.3-0.5-0.7-0.5-1.2l-1.8,1.5c-0.7-0.6-1.1-1.1-1.1-1.7
		c0-0.8,0.4-1.6,1.1-2.4l0.2-0.2l-1.2-2.2c0,0,0,0,0,0h0.1c0,0,0,0,0,0h0.2c0.7,0,1.2-0.2,1.7-0.6c0,0,0,0,0.1,0s0,0,0.1,0
		c0.7,0.4,1.3,0.5,1.8,0.5c0.2,0,0.4-0.1,0.6-0.3l0.2,0.1c-0.3,0.5-0.5,0.9-0.5,1.4c0,0.1,0,0.2,0,0.3c0,0.1,0,0.2,0,0.4v2.8v0.1
		c0,0.3,0.1,0.5,0.4,0.5c0.1,0,0.2,0,0.3-0.1l0,0l0,0c0,0,0,0,0.1,0l0.1,0.2L43,9.9z M39.8,3.6l1,1.9l1.3,0.6V4.4L39.8,3.6z
		 M40.7,5.7c0,0-0.1,0.1-0.1,0.4c-0.1,0.5-0.2,0.8-0.2,1.1c0,0.5,0.3,1,0.9,1.5L42.2,8V6.4L41.4,6L40.7,5.7z"/>
	<path class="st0" d="M46.1,2.8c0.3,0.3,0.5,0.5,0.6,0.6c0.1,0.2,0.2,0.5,0.2,0.8l1.7-1.4l1,1l0.7-0.6l0.2,0.2
		c-0.1,0.1-0.1,0.1-0.2,0.2c-0.1,0.1-0.2,0.2-0.3,0.3c-0.2,0.3-0.3,0.7-0.3,1.3V8c0,0.4,0.1,0.7,0.3,0.7c0.1,0,0.2-0.1,0.3-0.2v0
		l0.1-0.1l0.2,0.3l-1.5,1.2c-0.1,0-0.1-0.1-0.2-0.2c-0.1-0.1-0.2-0.2-0.3-0.3c-0.2-0.3-0.3-0.8-0.3-1.5V4.3l-0.5-0.6l-1,0.8v3.8
		l0.5,0.5l-1.2,1l-1.2-1l0.5-0.5V4.7c0,0,0,0,0-0.1V4.5v0c0-0.3-0.1-0.5-0.3-0.5c-0.1,0-0.2,0-0.4,0.1l-0.2-0.2L46.1,2.8z"/>
	<path class="st0" d="M52.9,9.9c-0.5-0.5-1.1-0.8-1.7-1V8.7c0.3-0.2,0.4-0.5,0.4-1V7.6V3.8h-0.5V3.1h0.5V1.3
		c0.2-0.1,0.4-0.3,0.7-0.5c0.2-0.2,0.5-0.4,0.7-0.6l1.4,0.3l-0.2,1.1l-1.2-0.3v1.7H54v0.7h-0.9v4.5l0.4,0.3c0.1,0,0.1,0.1,0.2,0.1
		c0.1,0,0.1,0.1,0.2,0.1l0.4-0.3l0.2,0.2L52.9,9.9z"/>
	<path class="st0" d="M58.5,9.1c-0.2,0.1-0.3,0.2-0.4,0.2c-0.2,0.1-0.4,0.2-0.5,0.3s-0.3,0.2-0.4,0.3c-0.8-0.6-1.7-1-2.5-1V8.7
		c0.2-0.1,0.3-0.3,0.3-0.5c0-0.2,0-0.4,0-0.6c0-0.2,0-0.3,0-0.5V3.9c0.7-0.2,1.4-0.6,2-1.1c0.7,0.5,1.4,0.8,2.2,1v5
		C58.9,8.9,58.6,9,58.5,9.1z M56.3,8.1l1.5,0.6V4.5l-1.5-0.6V8.1z"/>
	<path class="st0" d="M61.1,2.8c0.5,0.3,0.8,0.6,1,1.1l1.3-1.2l1,1.2l-1,0.9l-0.8-1L62,4.4v3.9l0.7,0.5l0.6-0.5l0.2,0.2l-1.7,1.4
		c-0.6-0.6-1.1-0.9-1.7-1V8.7c0.3-0.2,0.5-0.5,0.5-1.1V4.8c0-0.4-0.1-0.6-0.2-0.8l-0.1-0.1l-0.4,0.3L59.7,4L61.1,2.8z"/>
	<path class="st0" d="M64.8,0.4L69,3.5c0.2-0.3,0.4-0.4,0.7-0.5l0.1,0.2c-0.2,0.2-0.3,0.6-0.3,1v4.6c-0.8,0.3-1.5,0.7-2.1,1.1
		c-0.5-0.4-1-0.6-1.5-0.8c-0.3-0.1-0.7-0.2-1.1-0.2V8.7c0.3-0.2,0.4-0.6,0.4-1.3V3.9c0.5-0.1,1-0.3,1.3-0.6L64.8,2V0.4z M68.1,8.7
		V4.5l-1.1-0.8c-0.1,0.1-0.1,0.1-0.2,0.1c0,0-0.1,0.1-0.2,0.1V8L68.1,8.7z"/>
	<path class="st0" d="M82.7,9.9c-1.1-0.3-2.2-0.5-3.2-0.5c-1.3,0-2.4,0.3-3.6,0.9l-0.2-0.3l0.2-0.1l1.4-0.8c0,0,0.1,0,0.1-0.1
		c0.1,0,0.1-0.1,0.2-0.1c0.6-0.4,1-0.8,1.3-1.1c0.3-0.4,0.4-1,0.4-1.7V4.3c0-0.9,0.1-1.6,0.4-2.1c-0.8,0.2-1.3,0.9-1.3,2v1.6
		c0,0.9-0.2,1.6-0.5,2C78,7.9,77.9,8,77.8,8.1c-0.1,0.1-0.3,0.3-0.5,0.4C77,8.8,76.8,9,76.5,9.2c-0.3,0.2-0.6,0.4-0.9,0.6l-0.2-0.2
		c0.5-0.3,0.9-0.6,1.3-1.1c0.3-0.3,0.4-0.6,0.4-1V7.4c0-0.3-0.1-0.5-0.3-0.7c-0.2-0.2-0.4-0.3-0.7-0.3c-0.2,0-0.4,0.1-0.7,0.3
		l-0.2-0.2c0.4-0.7,0.8-1,1.4-1c0.2,0,0.4,0,0.6,0.1c0-0.6,0.1-1.2,0.3-1.8C77.6,3.4,78,3,78.6,2.5c0.1,0,0.1-0.1,0.2-0.1
		c0.1,0,0.2-0.1,0.2-0.1c-0.1,0-0.2,0-0.3,0c-0.1,0-0.2,0-0.2,0c-0.1,0-0.2,0-0.3,0s-0.2,0-0.3,0C77,2.3,76.4,2.2,76,2
		c-0.5-0.3-0.7-0.8-0.7-1.6l0.2,0C75.7,0.8,76.1,1,76.7,1c0.4,0,1,0,1.9,0c0.4,0,0.8,0,1.1,0c0.3,0,0.6,0,0.8,0
		c0.9,0,1.7,0.1,2.2,0.3c0.6,0.3,1.1,0.8,1.5,1.6c0.3,0.7,0.5,1.7,0.6,3c0,0.3,0,0.7,0,1.1c0,0.4,0,1,0,1.6v0L82.7,9.9z M80.4,2.2
		C80.4,2.2,80.4,2.2,80.4,2.2l-0.1,0c0,0,0,0,0,0h0c-0.3,0.5-0.5,1.2-0.5,2.1v1.6c0,1.1-0.3,1.9-0.9,2.4c0.5-0.1,1-0.2,1.6-0.2
		L80.4,2.2C80.4,2.2,80.4,2.2,80.4,2.2z M81.9,5.1c0.4,0,0.8-0.1,1.2-0.4c-0.1-0.9-0.3-1.5-0.6-1.8c-0.3-0.4-0.9-0.6-1.8-0.6v2.5
		C81.1,4.9,81.5,5.1,81.9,5.1z M82,6.3c0.5,0,0.9,0.1,1.3,0.4c0-0.3,0-0.6,0-0.8s0-0.5-0.1-0.8c-0.5,0.3-0.9,0.4-1.3,0.4
		c-0.4,0-0.8-0.1-1.2-0.4v1.7C81.2,6.4,81.6,6.3,82,6.3z M83.3,8.7c0-0.7,0-1.2,0-1.6c-0.4-0.3-0.9-0.5-1.3-0.5h-0.1
		c0,0-0.1,0-0.1,0c-0.4,0.1-0.7,0.2-1.1,0.4v1.1C81.8,8.3,82.6,8.4,83.3,8.7z"/>
	<path class="st0" d="M89.6,9.9c0,0-0.1-0.1-0.1-0.1c-0.1,0-0.1-0.1-0.2-0.2c-0.3-0.3-0.5-0.7-0.5-1.2l-1.8,1.5
		c-0.7-0.6-1.1-1.1-1.1-1.7c0-0.8,0.4-1.6,1.1-2.4l0.2-0.2l-1.2-2.2c0,0,0,0,0,0H86c0,0,0,0,0,0h0.2c0.7,0,1.2-0.2,1.7-0.6
		c0,0,0,0,0.1,0s0,0,0.1,0c0.7,0.4,1.3,0.5,1.8,0.5c0.2,0,0.4-0.1,0.6-0.3l0.2,0.1c-0.3,0.5-0.5,0.9-0.5,1.4c0,0.1,0,0.2,0,0.3
		c0,0.1,0,0.2,0,0.4v2.8v0.1c0,0.3,0.1,0.5,0.3,0.5c0.1,0,0.2,0,0.3-0.1l0,0l0,0c0,0,0,0,0.1,0l0.1,0.2L89.6,9.9z M86.4,3.6l1,1.9
		l1.3,0.6V4.4L86.4,3.6z M87.3,5.7c0,0-0.1,0.1-0.1,0.4C87,6.6,87,7,87,7.3c0,0.5,0.3,1,0.9,1.5L88.7,8V6.4L88,6L87.3,5.7z"/>
	<path class="st0" d="M92.9,9.9c-0.2-0.3-0.5-0.5-0.7-0.7C92,9,91.8,8.9,91.6,8.8V8.6c0.3-0.1,0.4-0.4,0.4-0.9V4.1l-0.5-0.4l1.2-0.9
		l1.2,1l-0.5,0.4v4.3l0.4,0.4l0.4-0.4l0.2,0.2L92.9,9.9z M93.2,0l1.2,0l-1.2,1.6l-0.3,0L93.2,0z"/>
	<path class="st0" d="M96.6,9.9c-0.5-0.5-1-0.8-1.7-1V8.7c0.3-0.1,0.5-0.5,0.5-1V2.2c0-0.4,0-0.7-0.1-0.9C95.2,1,95,0.8,94.7,0.6
		l0.1-0.2c0.4,0.2,0.8,0.4,1.1,0.7c0.4-0.4,0.9-0.7,1.6-0.9l0.1,0.2c0,0-0.1,0.1-0.1,0.1s-0.1,0.1-0.2,0.1c-0.2,0.2-0.3,0.4-0.4,0.7
		c0,0.1-0.1,0.4-0.1,0.8v6.2l0.7,0.5l0.3-0.2l0.2,0.2L96.6,9.9z"/>
	<path class="st0" d="M99.1,2.8C99.2,2.8,99.2,2.8,99.1,2.8c0.1,0.1,0.2,0.1,0.3,0.2c0.4,0.3,0.6,0.8,0.6,1.4l1.9-1.5
		c0.3,0.3,0.5,0.6,0.6,1c0.1,0.3,0.2,0.7,0.3,1.1c0,0,0,0.1,0,0.1v0.1c0,0.9-0.4,1.7-1.1,2.4c-0.2,0.2-0.5,0.5-0.9,0.7
		c-0.4,0.3-0.8,0.6-1.4,0.9c-0.1,0.1-0.3,0.2-0.5,0.3c-0.2,0.1-0.4,0.3-0.6,0.5c-0.2,0.2-0.3,0.4-0.3,0.7c0,0.3,0.1,0.5,0.3,0.6
		c0.2,0.1,0.4,0.2,0.7,0.2c0.3,0,0.6-0.1,0.9-0.3c0.2-0.2,0.4-0.4,0.6-0.4c0.2,0,0.3,0.1,0.3,0.3c0,0.3-0.3,0.5-0.9,0.6
		c-0.3,0.1-0.6,0.1-0.8,0.1c-0.4,0-0.7-0.1-1-0.3c-0.3-0.2-0.4-0.5-0.4-0.9c0-0.3,0.1-0.6,0.4-1s0.4-0.9,0.4-1.3V4.8c0,0,0,0,0-0.1
		V4.5v0c0-0.3-0.1-0.5-0.3-0.5C98.2,4,98.1,4,98,4.1c0,0,0,0,0,0l0,0l0,0L97.7,4L99.1,2.8z M100,8.5c0.4-0.3,0.8-0.7,1-1.1
		c0.3-0.5,0.4-1,0.5-1.5V5.8V5.7c0-0.6-0.2-1.2-0.5-1.7l-1,0.7V8.5z"/>
</g>
</svg>
